<?xml version="1.0" encoding="UTF-8" standalone="no"?>
<svg
   width="256"
   height="256"
   viewBox="0 0 256 256"
   version="1.1"
   id="svg512"
   sodipodi:docname="grid_16x16.svg"
   inkscape:version="1.3 (0e150ed6c4, 2023-07-21)"
   inkscape:export-filename="grid_16x16.png"
   inkscape:export-xdpi="48"
   inkscape:export-ydpi="48"
   xmlns:inkscape="http://www.inkscape.org/namespaces/inkscape"
   xmlns:sodipodi="http://sodipodi.sourceforge.net/DTD/sodipodi-0.dtd"
   xmlns="http://www.w3.org/2000/svg"
   xmlns:svg="http://www.w3.org/2000/svg">
  <sodipodi:namedview
     id="namedview512"
     pagecolor="#505050"
     bordercolor="#ffffff"
     borderopacity="1"
     inkscape:showpageshadow="0"
     inkscape:pageopacity="0"
     inkscape:pagecheckerboard="1"
     inkscape:deskcolor="#d1d1d1"
     inkscape:zoom="3.6582875"
     inkscape:cx="84.602427"
     inkscape:cy="128.61209"
     inkscape:window-width="2560"
     inkscape:window-height="1361"
     inkscape:window-x="-9"
     inkscape:window-y="442"
     inkscape:window-maximized="1"
     inkscape:current-layer="svg512" />
  <defs
     id="defs1" />
  <path
     d="m 120.86523,25 -8,13.855469 -8,13.857422 -7.999996,13.855468 -8,13.857422 -8,13.855469 -8,13.85742 -8,13.85547 h 16 16 15.999996 l 8,13.85742 -8,13.85547 h -15.999996 -16 -16 -16 l -8,13.85742 -8,13.85547 h 16 16 16 16 15.999996 16 16 16 l 8,-13.85547 8,-13.85742 8,-13.85547 8,-13.85742 -8,-13.85547 -8,-13.85742 h -16 -16 -16 l -8,-13.855469 8,-13.857422 h 16 16 l -8,-13.855468 -8,-13.857422 -8,-13.855469 z"
     style="fill:#333333;stroke:#000000;stroke-opacity:1;stroke-width:2;stroke-dasharray:none"
     id="path517" />
  <path
     d="m 160.86523,94.28125 h 16 l -8,-13.855469 -8,-13.857422 h -16 -16 l -8,13.857422 8,13.855469 h 16 z"
     style="fill:#f5f5f5;stroke:#000000;stroke-opacity:1;stroke-width:2;stroke-dasharray:none"
     id="path516" />
  <path
     d="m 80.865234,121.99414 h -16 l -8,13.85742 -8,13.85547 h 16 16 16 15.999996 l 8,-13.85547 -8,-13.85742 H 96.865234 Z"
     style="fill:#f5f5f5;stroke:#000000;stroke-opacity:1;stroke-width:2;stroke-dasharray:none"
     id="path518" />
  <path
     d="m 48.865234,177.41992 h -16 l -8,13.85742 -8,13.85547 h 16 16 16 16 16 15.999996 16 16 16 16 l 8,-13.85547 8,-13.85742 8,-13.85547 8,-13.85742 -8,-13.85547 -8,-13.85742 -8,13.85742 -8,13.85547 -8,13.85742 -8,13.85547 h -16 -16 -16 -15.999996 -16 -16 z"
     style="fill:#f5f5f5;stroke:#000000;stroke-opacity:1;stroke-width:2;stroke-dasharray:none"
     id="path519" />
  <path
     d="m 208.86523,149.70703 -8,13.85742 -8,13.85547 -8,13.85742 -8,13.85547 h -16 -16 -16 -16 -15.999996 -16 -16 -16 -16 -16 l -7.9999996,13.85742 7.9999996,13.85547 h 16 16 16 16 16 15.999996 16 16 16 16 16 16 16 16 l 8,-13.85547 -8,-13.85742 -8,-13.85547 -8,-13.85742 -8,-13.85547 z"
     style="fill:#333333;stroke:#000000;stroke-opacity:1;stroke-width:2;stroke-dasharray:none"
     id="path520" />
</svg>
